<svg width="153" height="153" viewBox="0 0 153 153" fill="none" xmlns="http://www.w3.org/2000/svg">
<rect width="153" height="153" rx="75" fill="black" fill-opacity="0.1"/>
<path d="M103.529 70.4141C83.5153 67.6649 66.257 82.5252 67.4166 102.236M59.8472 64.3888C59.8472 65.9948 60.4852 67.5351 61.6208 68.6707C62.7564 69.8064 64.2967 70.4444 65.9027 70.4444C67.5088 70.4444 69.049 69.8064 70.1846 68.6707C71.3203 67.5351 71.9583 65.9948 71.9583 64.3888C71.9583 62.7828 71.3203 61.2425 70.1846 60.1069C69.049 58.9712 67.5088 58.3333 65.9027 58.3333C64.2967 58.3333 62.7564 58.9712 61.6208 60.1069C60.4852 61.2425 59.8472 62.7828 59.8472 64.3888Z" stroke="white" stroke-width="4.54167" stroke-linecap="round" stroke-linejoin="round"/>
<path d="M49.25 79.7277C57.6672 78.562 65.2215 82.6283 69.306 89.1138" stroke="white" stroke-width="4.54167" stroke-linecap="round" stroke-linejoin="round"/>
<path d="M49.25 68.6278C49.25 61.8456 49.25 58.4544 50.5701 55.8627C51.7312 53.5839 53.5839 51.7312 55.8627 50.5701C58.4544 49.25 61.8456 49.25 68.6278 49.25H84.3722C91.1544 49.25 94.5456 49.25 97.1373 50.5701C99.4161 51.7312 101.269 53.5839 102.43 55.8627C103.75 58.4544 103.75 61.8456 103.75 68.6278V84.3722C103.75 91.1544 103.75 94.5456 102.43 97.1373C101.269 99.4161 99.4161 101.269 97.1373 102.43C94.5456 103.75 91.1544 103.75 84.3722 103.75H68.6278C61.8456 103.75 58.4544 103.75 55.8627 102.43C53.5839 101.269 51.7312 99.4161 50.5701 97.1373C49.25 94.5456 49.25 91.1544 49.25 84.3722V68.6278Z" stroke="white" stroke-width="4.54167" stroke-linecap="round" stroke-linejoin="round"/>
</svg>
